<mxfile host="Electron" agent="Mozilla/5.0 (X11; Linux x86_64) AppleWebKit/537.36 (KHTML, like Gecko) draw.io/26.2.2 Chrome/134.0.6998.178 Electron/35.1.2 Safari/537.36" version="26.2.2" pages="4">
  <diagram name="Cho thuê phòng" id="-T6fL0q4amDsqF5RPxMe">
    <mxGraphModel dx="2212" dy="843" grid="1" gridSize="10" guides="1" tooltips="1" connect="1" arrows="1" fold="1" page="1" pageScale="1" pageWidth="850" pageHeight="1100" math="0" shadow="0">
      <root>
        <mxCell id="0" />
        <mxCell id="1" parent="0" />
        <mxCell id="oM9WBvk40az3S2105PCO-1" value="" style="ellipse;html=1;shape=startState;fillColor=#000000;strokeColor=#ff0000;fontSize=14;" vertex="1" parent="1">
          <mxGeometry x="370" y="90" width="30" height="30" as="geometry" />
        </mxCell>
        <mxCell id="oM9WBvk40az3S2105PCO-2" value="" style="edgeStyle=orthogonalEdgeStyle;html=1;verticalAlign=bottom;endArrow=open;endSize=8;strokeColor=#ff0000;rounded=0;fontSize=14;" edge="1" source="oM9WBvk40az3S2105PCO-1" parent="1" target="oM9WBvk40az3S2105PCO-3">
          <mxGeometry relative="1" as="geometry">
            <mxPoint x="385" y="180" as="targetPoint" />
          </mxGeometry>
        </mxCell>
        <mxCell id="oM9WBvk40az3S2105PCO-3" value="Chọn cho thuê phòng" style="rounded=1;whiteSpace=wrap;html=1;arcSize=40;fontColor=#000000;fillColor=#ffffc0;strokeColor=#ff0000;fontSize=14;" vertex="1" parent="1">
          <mxGeometry x="325" y="160" width="120" height="40" as="geometry" />
        </mxCell>
        <mxCell id="oM9WBvk40az3S2105PCO-4" value="" style="edgeStyle=orthogonalEdgeStyle;html=1;verticalAlign=bottom;endArrow=open;endSize=8;strokeColor=#ff0000;rounded=0;fontSize=14;" edge="1" source="oM9WBvk40az3S2105PCO-3" parent="1" target="oM9WBvk40az3S2105PCO-5">
          <mxGeometry relative="1" as="geometry">
            <mxPoint x="385" y="260" as="targetPoint" />
          </mxGeometry>
        </mxCell>
        <mxCell id="oM9WBvk40az3S2105PCO-5" value="" style="shape=line;html=1;strokeWidth=6;strokeColor=#ff0000;fontSize=14;" vertex="1" parent="1">
          <mxGeometry x="285" y="255" width="200" height="10" as="geometry" />
        </mxCell>
        <mxCell id="oM9WBvk40az3S2105PCO-6" value="" style="edgeStyle=orthogonalEdgeStyle;html=1;verticalAlign=bottom;endArrow=open;endSize=8;strokeColor=#ff0000;rounded=0;fontSize=14;" edge="1" source="oM9WBvk40az3S2105PCO-5" parent="1" target="oM9WBvk40az3S2105PCO-7">
          <mxGeometry relative="1" as="geometry">
            <mxPoint x="385" y="335" as="targetPoint" />
            <Array as="points">
              <mxPoint x="385" y="290" />
              <mxPoint x="150" y="290" />
            </Array>
          </mxGeometry>
        </mxCell>
        <mxCell id="oM9WBvk40az3S2105PCO-7" value="Nhập thông tin khách sạn" style="rounded=1;whiteSpace=wrap;html=1;arcSize=40;fontColor=#000000;fillColor=#ffffc0;strokeColor=#ff0000;fontSize=14;" vertex="1" parent="1">
          <mxGeometry x="90" y="315" width="120" height="40" as="geometry" />
        </mxCell>
        <mxCell id="oM9WBvk40az3S2105PCO-8" value="" style="edgeStyle=orthogonalEdgeStyle;html=1;verticalAlign=bottom;endArrow=open;endSize=8;strokeColor=#ff0000;rounded=0;fontSize=14;" edge="1" source="oM9WBvk40az3S2105PCO-7" parent="1" target="oM9WBvk40az3S2105PCO-12">
          <mxGeometry relative="1" as="geometry">
            <mxPoint x="245" y="415" as="targetPoint" />
          </mxGeometry>
        </mxCell>
        <mxCell id="oM9WBvk40az3S2105PCO-9" value="Nhập thông tin chủ sở hữu" style="rounded=1;whiteSpace=wrap;html=1;arcSize=40;fontColor=#000000;fillColor=#ffffc0;strokeColor=#ff0000;fontSize=14;" vertex="1" parent="1">
          <mxGeometry x="620" y="315" width="120" height="40" as="geometry" />
        </mxCell>
        <mxCell id="oM9WBvk40az3S2105PCO-10" value="" style="edgeStyle=orthogonalEdgeStyle;html=1;verticalAlign=bottom;endArrow=open;endSize=8;strokeColor=#ff0000;rounded=0;fontSize=14;" edge="1" source="oM9WBvk40az3S2105PCO-9" parent="1" target="oM9WBvk40az3S2105PCO-27">
          <mxGeometry relative="1" as="geometry">
            <mxPoint x="740" y="470" as="targetPoint" />
          </mxGeometry>
        </mxCell>
        <mxCell id="oM9WBvk40az3S2105PCO-11" value="" style="edgeStyle=orthogonalEdgeStyle;html=1;verticalAlign=bottom;endArrow=open;endSize=8;strokeColor=#ff0000;rounded=0;exitX=0.505;exitY=0.4;exitDx=0;exitDy=0;exitPerimeter=0;fontSize=14;" edge="1" parent="1" source="oM9WBvk40az3S2105PCO-5" target="oM9WBvk40az3S2105PCO-9">
          <mxGeometry relative="1" as="geometry">
            <mxPoint x="300" y="325" as="targetPoint" />
            <mxPoint x="395" y="275" as="sourcePoint" />
            <Array as="points">
              <mxPoint x="386" y="290" />
              <mxPoint x="680" y="290" />
            </Array>
          </mxGeometry>
        </mxCell>
        <mxCell id="oM9WBvk40az3S2105PCO-12" value="" style="shape=line;html=1;strokeWidth=6;strokeColor=#ff0000;fontSize=14;" vertex="1" parent="1">
          <mxGeometry x="50" y="410" width="200" height="10" as="geometry" />
        </mxCell>
        <mxCell id="oM9WBvk40az3S2105PCO-13" value="" style="edgeStyle=orthogonalEdgeStyle;html=1;verticalAlign=bottom;endArrow=open;endSize=8;strokeColor=#ff0000;rounded=0;fontSize=14;" edge="1" source="oM9WBvk40az3S2105PCO-12" parent="1" target="oM9WBvk40az3S2105PCO-14">
          <mxGeometry relative="1" as="geometry">
            <mxPoint x="150" y="490" as="targetPoint" />
            <Array as="points">
              <mxPoint x="150" y="440" />
              <mxPoint x="-40" y="440" />
            </Array>
          </mxGeometry>
        </mxCell>
        <mxCell id="oM9WBvk40az3S2105PCO-14" value="Địa chỉ khách sạn" style="rounded=1;whiteSpace=wrap;html=1;arcSize=40;fontColor=#000000;fillColor=#ffffc0;strokeColor=#ff0000;fontSize=14;" vertex="1" parent="1">
          <mxGeometry x="-100" y="470" width="120" height="40" as="geometry" />
        </mxCell>
        <mxCell id="oM9WBvk40az3S2105PCO-16" value="" style="shape=line;html=1;strokeWidth=6;strokeColor=#ff0000;fontSize=14;" vertex="1" parent="1">
          <mxGeometry x="50" y="560" width="200" height="10" as="geometry" />
        </mxCell>
        <mxCell id="oM9WBvk40az3S2105PCO-17" value="" style="edgeStyle=orthogonalEdgeStyle;html=1;verticalAlign=bottom;endArrow=open;endSize=8;strokeColor=#ff0000;rounded=0;fontSize=14;" edge="1" source="oM9WBvk40az3S2105PCO-16" parent="1" target="oM9WBvk40az3S2105PCO-40">
          <mxGeometry relative="1" as="geometry">
            <mxPoint x="145" y="680" as="targetPoint" />
          </mxGeometry>
        </mxCell>
        <mxCell id="oM9WBvk40az3S2105PCO-19" value="" style="edgeStyle=orthogonalEdgeStyle;html=1;verticalAlign=bottom;endArrow=open;endSize=8;strokeColor=#ff0000;rounded=0;fontSize=14;" edge="1" parent="1" source="oM9WBvk40az3S2105PCO-14">
          <mxGeometry relative="1" as="geometry">
            <mxPoint x="150" y="564" as="targetPoint" />
            <mxPoint x="160" y="430" as="sourcePoint" />
            <Array as="points">
              <mxPoint x="-40" y="530" />
              <mxPoint x="150" y="530" />
              <mxPoint x="150" y="564" />
            </Array>
          </mxGeometry>
        </mxCell>
        <mxCell id="oM9WBvk40az3S2105PCO-21" value="" style="edgeStyle=orthogonalEdgeStyle;html=1;verticalAlign=bottom;endArrow=open;endSize=8;strokeColor=#ff0000;rounded=0;fontSize=14;" edge="1" parent="1" target="oM9WBvk40az3S2105PCO-22">
          <mxGeometry relative="1" as="geometry">
            <mxPoint x="150" y="470" as="targetPoint" />
            <mxPoint x="150" y="420" as="sourcePoint" />
          </mxGeometry>
        </mxCell>
        <mxCell id="oM9WBvk40az3S2105PCO-22" value="Ảnh giấy tờ khách sạn" style="rounded=1;whiteSpace=wrap;html=1;arcSize=40;fontColor=#000000;fillColor=#ffffc0;strokeColor=#ff0000;fontSize=14;" vertex="1" parent="1">
          <mxGeometry x="90" y="470" width="120" height="40" as="geometry" />
        </mxCell>
        <mxCell id="oM9WBvk40az3S2105PCO-23" value="" style="edgeStyle=orthogonalEdgeStyle;html=1;verticalAlign=bottom;endArrow=open;endSize=8;strokeColor=#ff0000;rounded=0;entryX=0.5;entryY=0.4;entryDx=0;entryDy=0;entryPerimeter=0;fontSize=14;" edge="1" source="oM9WBvk40az3S2105PCO-22" parent="1" target="oM9WBvk40az3S2105PCO-16">
          <mxGeometry relative="1" as="geometry">
            <mxPoint x="150" y="550" as="targetPoint" />
          </mxGeometry>
        </mxCell>
        <mxCell id="oM9WBvk40az3S2105PCO-24" value="" style="edgeStyle=orthogonalEdgeStyle;html=1;verticalAlign=bottom;endArrow=open;endSize=8;strokeColor=#ff0000;rounded=0;exitX=0.505;exitY=0.5;exitDx=0;exitDy=0;exitPerimeter=0;fontSize=14;" edge="1" parent="1" source="oM9WBvk40az3S2105PCO-12" target="oM9WBvk40az3S2105PCO-25">
          <mxGeometry relative="1" as="geometry">
            <mxPoint x="320" y="480" as="targetPoint" />
            <mxPoint x="160" y="430" as="sourcePoint" />
            <Array as="points">
              <mxPoint x="151" y="440" />
              <mxPoint x="320" y="440" />
            </Array>
          </mxGeometry>
        </mxCell>
        <mxCell id="oM9WBvk40az3S2105PCO-25" value="Hình ảnh về khách sạn" style="rounded=1;whiteSpace=wrap;html=1;arcSize=40;fontColor=#000000;fillColor=#ffffc0;strokeColor=#ff0000;fontSize=14;" vertex="1" parent="1">
          <mxGeometry x="260" y="470" width="120" height="40" as="geometry" />
        </mxCell>
        <mxCell id="oM9WBvk40az3S2105PCO-26" value="" style="edgeStyle=orthogonalEdgeStyle;html=1;verticalAlign=bottom;endArrow=open;endSize=8;strokeColor=#ff0000;rounded=0;entryX=0.5;entryY=0.4;entryDx=0;entryDy=0;entryPerimeter=0;fontSize=14;" edge="1" source="oM9WBvk40az3S2105PCO-25" parent="1" target="oM9WBvk40az3S2105PCO-16">
          <mxGeometry relative="1" as="geometry">
            <mxPoint x="320" y="560" as="targetPoint" />
            <Array as="points">
              <mxPoint x="320" y="530" />
              <mxPoint x="150" y="530" />
            </Array>
          </mxGeometry>
        </mxCell>
        <mxCell id="oM9WBvk40az3S2105PCO-27" value="" style="shape=line;html=1;strokeWidth=6;strokeColor=#ff0000;fontSize=14;" vertex="1" parent="1">
          <mxGeometry x="580" y="410" width="200" height="10" as="geometry" />
        </mxCell>
        <mxCell id="oM9WBvk40az3S2105PCO-28" value="" style="edgeStyle=orthogonalEdgeStyle;html=1;verticalAlign=bottom;endArrow=open;endSize=8;strokeColor=#ff0000;rounded=0;fontSize=14;" edge="1" source="oM9WBvk40az3S2105PCO-27" parent="1" target="oM9WBvk40az3S2105PCO-29">
          <mxGeometry relative="1" as="geometry">
            <mxPoint x="680" y="490" as="targetPoint" />
            <Array as="points">
              <mxPoint x="680" y="440" />
              <mxPoint x="480" y="440" />
            </Array>
          </mxGeometry>
        </mxCell>
        <mxCell id="oM9WBvk40az3S2105PCO-29" value="Ảnh căn cước công dân" style="rounded=1;whiteSpace=wrap;html=1;arcSize=40;fontColor=#000000;fillColor=#ffffc0;strokeColor=#ff0000;fontSize=14;" vertex="1" parent="1">
          <mxGeometry x="420" y="470" width="120" height="40" as="geometry" />
        </mxCell>
        <mxCell id="oM9WBvk40az3S2105PCO-30" value="" style="edgeStyle=orthogonalEdgeStyle;html=1;verticalAlign=bottom;endArrow=open;endSize=8;strokeColor=#ff0000;rounded=0;fontSize=14;" edge="1" source="oM9WBvk40az3S2105PCO-29" parent="1" target="oM9WBvk40az3S2105PCO-38">
          <mxGeometry relative="1" as="geometry">
            <mxPoint x="480" y="570" as="targetPoint" />
            <Array as="points">
              <mxPoint x="480" y="540" />
              <mxPoint x="680" y="540" />
            </Array>
          </mxGeometry>
        </mxCell>
        <mxCell id="oM9WBvk40az3S2105PCO-31" value="Tài khoản ngân hàng" style="rounded=1;whiteSpace=wrap;html=1;arcSize=40;fontColor=#000000;fillColor=#ffffc0;strokeColor=#ff0000;fontSize=14;" vertex="1" parent="1">
          <mxGeometry x="620" y="470" width="120" height="40" as="geometry" />
        </mxCell>
        <mxCell id="oM9WBvk40az3S2105PCO-32" value="" style="edgeStyle=orthogonalEdgeStyle;html=1;verticalAlign=bottom;endArrow=open;endSize=8;strokeColor=#ff0000;rounded=0;fontSize=14;" edge="1" source="oM9WBvk40az3S2105PCO-31" parent="1" target="oM9WBvk40az3S2105PCO-38">
          <mxGeometry relative="1" as="geometry">
            <mxPoint x="680" y="570" as="targetPoint" />
          </mxGeometry>
        </mxCell>
        <mxCell id="oM9WBvk40az3S2105PCO-33" value="Hình ảnh của chủ sở hữu" style="rounded=1;whiteSpace=wrap;html=1;arcSize=40;fontColor=#000000;fillColor=#ffffc0;strokeColor=#ff0000;fontSize=14;" vertex="1" parent="1">
          <mxGeometry x="800" y="470" width="120" height="40" as="geometry" />
        </mxCell>
        <mxCell id="oM9WBvk40az3S2105PCO-34" value="" style="edgeStyle=orthogonalEdgeStyle;html=1;verticalAlign=bottom;endArrow=open;endSize=8;strokeColor=#ff0000;rounded=0;fontSize=14;" edge="1" source="oM9WBvk40az3S2105PCO-33" parent="1" target="oM9WBvk40az3S2105PCO-38">
          <mxGeometry relative="1" as="geometry">
            <mxPoint x="860" y="570" as="targetPoint" />
            <Array as="points">
              <mxPoint x="860" y="540" />
              <mxPoint x="680" y="540" />
            </Array>
          </mxGeometry>
        </mxCell>
        <mxCell id="oM9WBvk40az3S2105PCO-36" value="" style="edgeStyle=orthogonalEdgeStyle;html=1;verticalAlign=bottom;endArrow=open;endSize=8;strokeColor=#ff0000;rounded=0;exitX=0.5;exitY=0.9;exitDx=0;exitDy=0;exitPerimeter=0;fontSize=14;" edge="1" parent="1" source="oM9WBvk40az3S2105PCO-27" target="oM9WBvk40az3S2105PCO-31">
          <mxGeometry relative="1" as="geometry">
            <mxPoint x="690" y="420" as="targetPoint" />
            <mxPoint x="690" y="365" as="sourcePoint" />
          </mxGeometry>
        </mxCell>
        <mxCell id="oM9WBvk40az3S2105PCO-37" value="" style="edgeStyle=orthogonalEdgeStyle;html=1;verticalAlign=bottom;endArrow=open;endSize=8;strokeColor=#ff0000;rounded=0;exitX=0.5;exitY=0.9;exitDx=0;exitDy=0;exitPerimeter=0;fontSize=14;" edge="1" parent="1" source="oM9WBvk40az3S2105PCO-27" target="oM9WBvk40az3S2105PCO-33">
          <mxGeometry relative="1" as="geometry">
            <mxPoint x="690" y="480" as="targetPoint" />
            <mxPoint x="690" y="429" as="sourcePoint" />
            <Array as="points">
              <mxPoint x="680" y="440" />
              <mxPoint x="860" y="440" />
            </Array>
          </mxGeometry>
        </mxCell>
        <mxCell id="oM9WBvk40az3S2105PCO-38" value="" style="shape=line;html=1;strokeWidth=6;strokeColor=#ff0000;fontSize=14;" vertex="1" parent="1">
          <mxGeometry x="580" y="565" width="200" height="10" as="geometry" />
        </mxCell>
        <mxCell id="oM9WBvk40az3S2105PCO-39" value="" style="edgeStyle=orthogonalEdgeStyle;html=1;verticalAlign=bottom;endArrow=open;endSize=8;strokeColor=#ff0000;rounded=0;fontSize=14;" edge="1" source="oM9WBvk40az3S2105PCO-38" parent="1" target="oM9WBvk40az3S2105PCO-42">
          <mxGeometry relative="1" as="geometry">
            <mxPoint x="680" y="645" as="targetPoint" />
          </mxGeometry>
        </mxCell>
        <mxCell id="oM9WBvk40az3S2105PCO-40" value="Chọn xác nhận" style="rounded=1;whiteSpace=wrap;html=1;arcSize=40;fontColor=#000000;fillColor=#ffffc0;strokeColor=#ff0000;fontSize=14;" vertex="1" parent="1">
          <mxGeometry x="90" y="625" width="120" height="40" as="geometry" />
        </mxCell>
        <mxCell id="oM9WBvk40az3S2105PCO-41" value="" style="edgeStyle=orthogonalEdgeStyle;html=1;verticalAlign=bottom;endArrow=open;endSize=8;strokeColor=#ff0000;rounded=0;fontSize=14;" edge="1" source="oM9WBvk40az3S2105PCO-40" parent="1" target="oM9WBvk40az3S2105PCO-50">
          <mxGeometry relative="1" as="geometry">
            <mxPoint x="150" y="760" as="targetPoint" />
          </mxGeometry>
        </mxCell>
        <mxCell id="oM9WBvk40az3S2105PCO-42" value="Chọn xác nhận" style="rounded=1;whiteSpace=wrap;html=1;arcSize=40;fontColor=#000000;fillColor=#ffffc0;strokeColor=#ff0000;fontSize=14;" vertex="1" parent="1">
          <mxGeometry x="620" y="625" width="120" height="40" as="geometry" />
        </mxCell>
        <mxCell id="oM9WBvk40az3S2105PCO-43" value="" style="edgeStyle=orthogonalEdgeStyle;html=1;verticalAlign=bottom;endArrow=open;endSize=8;strokeColor=#ff0000;rounded=0;fontSize=14;" edge="1" source="oM9WBvk40az3S2105PCO-42" parent="1" target="oM9WBvk40az3S2105PCO-53">
          <mxGeometry relative="1" as="geometry">
            <mxPoint x="680" y="725" as="targetPoint" />
          </mxGeometry>
        </mxCell>
        <mxCell id="oM9WBvk40az3S2105PCO-50" value="" style="rhombus;whiteSpace=wrap;html=1;fontColor=#000000;fillColor=#ffffc0;strokeColor=#ff0000;fontSize=14;" vertex="1" parent="1">
          <mxGeometry x="110" y="740" width="80" height="40" as="geometry" />
        </mxCell>
        <mxCell id="oM9WBvk40az3S2105PCO-51" value="Không hợp lệ" style="edgeStyle=orthogonalEdgeStyle;html=1;align=left;verticalAlign=bottom;endArrow=open;endSize=8;strokeColor=#ff0000;rounded=0;fontSize=14;" edge="1" source="oM9WBvk40az3S2105PCO-50" parent="1" target="oM9WBvk40az3S2105PCO-7">
          <mxGeometry x="-0.8644" relative="1" as="geometry">
            <mxPoint x="290" y="760" as="targetPoint" />
            <Array as="points">
              <mxPoint x="-130" y="760" />
              <mxPoint x="-130" y="335" />
            </Array>
            <mxPoint as="offset" />
          </mxGeometry>
        </mxCell>
        <mxCell id="oM9WBvk40az3S2105PCO-52" value="Hợp lệ" style="edgeStyle=orthogonalEdgeStyle;html=1;align=left;verticalAlign=top;endArrow=open;endSize=8;strokeColor=#ff0000;rounded=0;entryX=0.5;entryY=0.3;entryDx=0;entryDy=0;entryPerimeter=0;fontSize=14;" edge="1" source="oM9WBvk40az3S2105PCO-50" parent="1" target="oM9WBvk40az3S2105PCO-56">
          <mxGeometry x="-1" relative="1" as="geometry">
            <mxPoint x="150" y="840" as="targetPoint" />
            <Array as="points">
              <mxPoint x="150" y="810" />
              <mxPoint x="385" y="810" />
            </Array>
          </mxGeometry>
        </mxCell>
        <mxCell id="oM9WBvk40az3S2105PCO-53" value="" style="rhombus;whiteSpace=wrap;html=1;fontColor=#000000;fillColor=#ffffc0;strokeColor=#ff0000;fontSize=14;" vertex="1" parent="1">
          <mxGeometry x="640" y="740" width="80" height="40" as="geometry" />
        </mxCell>
        <mxCell id="oM9WBvk40az3S2105PCO-54" value="Không hợp lệ" style="edgeStyle=orthogonalEdgeStyle;html=1;align=left;verticalAlign=bottom;endArrow=open;endSize=8;strokeColor=#ff0000;rounded=0;fontSize=14;" edge="1" source="oM9WBvk40az3S2105PCO-53" parent="1" target="oM9WBvk40az3S2105PCO-9">
          <mxGeometry x="-1" relative="1" as="geometry">
            <mxPoint x="820" y="760" as="targetPoint" />
            <Array as="points">
              <mxPoint x="960" y="760" />
              <mxPoint x="960" y="335" />
            </Array>
          </mxGeometry>
        </mxCell>
        <mxCell id="oM9WBvk40az3S2105PCO-55" value="Hợp lệ" style="edgeStyle=orthogonalEdgeStyle;html=1;align=left;verticalAlign=top;endArrow=open;endSize=8;strokeColor=#ff0000;rounded=0;entryX=0.5;entryY=0.3;entryDx=0;entryDy=0;entryPerimeter=0;fontSize=14;" edge="1" source="oM9WBvk40az3S2105PCO-53" parent="1" target="oM9WBvk40az3S2105PCO-56">
          <mxGeometry x="-1" relative="1" as="geometry">
            <mxPoint x="680" y="840" as="targetPoint" />
            <Array as="points">
              <mxPoint x="680" y="810" />
              <mxPoint x="385" y="810" />
            </Array>
          </mxGeometry>
        </mxCell>
        <mxCell id="oM9WBvk40az3S2105PCO-56" value="" style="shape=line;html=1;strokeWidth=6;strokeColor=#ff0000;fontSize=14;" vertex="1" parent="1">
          <mxGeometry x="285" y="840" width="200" height="10" as="geometry" />
        </mxCell>
        <mxCell id="oM9WBvk40az3S2105PCO-57" value="" style="edgeStyle=orthogonalEdgeStyle;html=1;verticalAlign=bottom;endArrow=open;endSize=8;strokeColor=#ff0000;rounded=0;fontSize=14;" edge="1" source="oM9WBvk40az3S2105PCO-56" parent="1" target="oM9WBvk40az3S2105PCO-58">
          <mxGeometry relative="1" as="geometry">
            <mxPoint x="385" y="920" as="targetPoint" />
          </mxGeometry>
        </mxCell>
        <mxCell id="oM9WBvk40az3S2105PCO-58" value="Nhập thông tin các phòng cho thuê" style="rounded=1;whiteSpace=wrap;html=1;arcSize=40;fontColor=#000000;fillColor=#ffffc0;strokeColor=#ff0000;fontSize=14;" vertex="1" parent="1">
          <mxGeometry x="325" y="900" width="120" height="40" as="geometry" />
        </mxCell>
        <mxCell id="oM9WBvk40az3S2105PCO-59" value="" style="edgeStyle=orthogonalEdgeStyle;html=1;verticalAlign=bottom;endArrow=open;endSize=8;strokeColor=#ff0000;rounded=0;fontSize=14;" edge="1" source="oM9WBvk40az3S2105PCO-58" parent="1" target="oM9WBvk40az3S2105PCO-60">
          <mxGeometry relative="1" as="geometry">
            <mxPoint x="385" y="1000" as="targetPoint" />
          </mxGeometry>
        </mxCell>
        <mxCell id="oM9WBvk40az3S2105PCO-60" value="" style="rhombus;whiteSpace=wrap;html=1;fontColor=#000000;fillColor=#ffffc0;strokeColor=#ff0000;fontSize=14;" vertex="1" parent="1">
          <mxGeometry x="345" y="980" width="80" height="40" as="geometry" />
        </mxCell>
        <mxCell id="oM9WBvk40az3S2105PCO-61" value="Không hợp lệ" style="edgeStyle=orthogonalEdgeStyle;html=1;align=left;verticalAlign=bottom;endArrow=open;endSize=8;strokeColor=#ff0000;rounded=0;fontSize=14;" edge="1" source="oM9WBvk40az3S2105PCO-60" parent="1" target="oM9WBvk40az3S2105PCO-58">
          <mxGeometry x="-1" relative="1" as="geometry">
            <mxPoint x="525" y="1000" as="targetPoint" />
            <Array as="points">
              <mxPoint x="520" y="1000" />
              <mxPoint x="520" y="920" />
            </Array>
          </mxGeometry>
        </mxCell>
        <mxCell id="oM9WBvk40az3S2105PCO-62" value="Hợp lệ" style="edgeStyle=orthogonalEdgeStyle;html=1;align=left;verticalAlign=top;endArrow=open;endSize=8;strokeColor=#ff0000;rounded=0;fontSize=14;" edge="1" source="oM9WBvk40az3S2105PCO-60" parent="1" target="oM9WBvk40az3S2105PCO-63">
          <mxGeometry x="-1" relative="1" as="geometry">
            <mxPoint x="385" y="1080" as="targetPoint" />
          </mxGeometry>
        </mxCell>
        <mxCell id="oM9WBvk40az3S2105PCO-63" value="" style="ellipse;html=1;shape=endState;fillColor=#000000;strokeColor=#ff0000;fontSize=14;" vertex="1" parent="1">
          <mxGeometry x="370" y="1065" width="30" height="30" as="geometry" />
        </mxCell>
      </root>
    </mxGraphModel>
  </diagram>
  <diagram id="DlUecp5q4zNZdGoNo5jO" name="Sửa thông tin phòng">
    <mxGraphModel dx="1362" dy="843" grid="1" gridSize="10" guides="1" tooltips="1" connect="1" arrows="1" fold="1" page="1" pageScale="1" pageWidth="850" pageHeight="1100" math="0" shadow="0">
      <root>
        <mxCell id="0" />
        <mxCell id="1" parent="0" />
        <mxCell id="Ei0nYyWku0wqcnocU7TV-1" value="" style="ellipse;html=1;shape=startState;fillColor=#000000;strokeColor=#ff0000;fontSize=14;" vertex="1" parent="1">
          <mxGeometry x="410" y="90" width="30" height="30" as="geometry" />
        </mxCell>
        <mxCell id="Ei0nYyWku0wqcnocU7TV-2" value="" style="edgeStyle=orthogonalEdgeStyle;html=1;verticalAlign=bottom;endArrow=open;endSize=8;strokeColor=#ff0000;rounded=0;fontSize=14;" edge="1" source="Ei0nYyWku0wqcnocU7TV-1" parent="1" target="Ei0nYyWku0wqcnocU7TV-3">
          <mxGeometry relative="1" as="geometry">
            <mxPoint x="425" y="180" as="targetPoint" />
          </mxGeometry>
        </mxCell>
        <mxCell id="Ei0nYyWku0wqcnocU7TV-3" value="Chọn quản lý danh sách phòng" style="rounded=1;whiteSpace=wrap;html=1;arcSize=40;fontColor=#000000;fillColor=#ffffc0;strokeColor=#ff0000;fontSize=14;" vertex="1" parent="1">
          <mxGeometry x="365" y="160" width="120" height="40" as="geometry" />
        </mxCell>
        <mxCell id="Ei0nYyWku0wqcnocU7TV-4" value="" style="edgeStyle=orthogonalEdgeStyle;html=1;verticalAlign=bottom;endArrow=open;endSize=8;strokeColor=#ff0000;rounded=0;fontSize=14;" edge="1" source="Ei0nYyWku0wqcnocU7TV-3" parent="1" target="Ei0nYyWku0wqcnocU7TV-5">
          <mxGeometry relative="1" as="geometry">
            <mxPoint x="425" y="260" as="targetPoint" />
          </mxGeometry>
        </mxCell>
        <mxCell id="Ei0nYyWku0wqcnocU7TV-5" value="Chọn chỉnh sửa phòng" style="rounded=1;whiteSpace=wrap;html=1;arcSize=40;fontColor=#000000;fillColor=#ffffc0;strokeColor=#ff0000;fontSize=14;" vertex="1" parent="1">
          <mxGeometry x="365" y="240" width="120" height="40" as="geometry" />
        </mxCell>
        <mxCell id="Ei0nYyWku0wqcnocU7TV-6" value="" style="edgeStyle=orthogonalEdgeStyle;html=1;verticalAlign=bottom;endArrow=open;endSize=8;strokeColor=#ff0000;rounded=0;fontSize=14;" edge="1" source="Ei0nYyWku0wqcnocU7TV-5" parent="1" target="Ei0nYyWku0wqcnocU7TV-7">
          <mxGeometry relative="1" as="geometry">
            <mxPoint x="425" y="340" as="targetPoint" />
          </mxGeometry>
        </mxCell>
        <mxCell id="Ei0nYyWku0wqcnocU7TV-7" value="Nhập thông tin phòng chỉnh sửa" style="rounded=1;whiteSpace=wrap;html=1;arcSize=40;fontColor=#000000;fillColor=#ffffc0;strokeColor=#ff0000;fontSize=14;" vertex="1" parent="1">
          <mxGeometry x="365" y="320" width="120" height="40" as="geometry" />
        </mxCell>
        <mxCell id="Ei0nYyWku0wqcnocU7TV-8" value="" style="edgeStyle=orthogonalEdgeStyle;html=1;verticalAlign=bottom;endArrow=open;endSize=8;strokeColor=#ff0000;rounded=0;fontSize=14;" edge="1" source="Ei0nYyWku0wqcnocU7TV-7" parent="1" target="Ei0nYyWku0wqcnocU7TV-9">
          <mxGeometry relative="1" as="geometry">
            <mxPoint x="425" y="420" as="targetPoint" />
          </mxGeometry>
        </mxCell>
        <mxCell id="Ei0nYyWku0wqcnocU7TV-9" value="Xác nhận thay đổi thông tin" style="rounded=1;whiteSpace=wrap;html=1;arcSize=40;fontColor=#000000;fillColor=#ffffc0;strokeColor=#ff0000;fontSize=14;" vertex="1" parent="1">
          <mxGeometry x="365" y="400" width="120" height="40" as="geometry" />
        </mxCell>
        <mxCell id="Ei0nYyWku0wqcnocU7TV-10" value="" style="edgeStyle=orthogonalEdgeStyle;html=1;verticalAlign=bottom;endArrow=open;endSize=8;strokeColor=#ff0000;rounded=0;fontSize=14;" edge="1" source="Ei0nYyWku0wqcnocU7TV-9" parent="1" target="Ei0nYyWku0wqcnocU7TV-11">
          <mxGeometry relative="1" as="geometry">
            <mxPoint x="425" y="500" as="targetPoint" />
          </mxGeometry>
        </mxCell>
        <mxCell id="Ei0nYyWku0wqcnocU7TV-11" value="" style="rhombus;whiteSpace=wrap;html=1;fontColor=#000000;fillColor=#ffffc0;strokeColor=#ff0000;fontSize=14;" vertex="1" parent="1">
          <mxGeometry x="385" y="480" width="80" height="40" as="geometry" />
        </mxCell>
        <mxCell id="Ei0nYyWku0wqcnocU7TV-12" value="Không" style="edgeStyle=orthogonalEdgeStyle;html=1;align=left;verticalAlign=bottom;endArrow=open;endSize=8;strokeColor=#ff0000;rounded=0;fontSize=14;" edge="1" source="Ei0nYyWku0wqcnocU7TV-11" parent="1" target="Ei0nYyWku0wqcnocU7TV-7">
          <mxGeometry x="-0.6897" relative="1" as="geometry">
            <mxPoint x="565" y="500" as="targetPoint" />
            <Array as="points">
              <mxPoint x="310" y="500" />
              <mxPoint x="310" y="340" />
            </Array>
            <mxPoint as="offset" />
          </mxGeometry>
        </mxCell>
        <mxCell id="Ei0nYyWku0wqcnocU7TV-13" value="Có" style="edgeStyle=orthogonalEdgeStyle;html=1;align=left;verticalAlign=top;endArrow=open;endSize=8;strokeColor=#ff0000;rounded=0;fontSize=14;" edge="1" source="Ei0nYyWku0wqcnocU7TV-11" parent="1" target="Ei0nYyWku0wqcnocU7TV-15">
          <mxGeometry x="-1" relative="1" as="geometry">
            <mxPoint x="425" y="580" as="targetPoint" />
          </mxGeometry>
        </mxCell>
        <mxCell id="Ei0nYyWku0wqcnocU7TV-15" value="Kiểm tra thông tin thay đổi" style="rounded=1;whiteSpace=wrap;html=1;arcSize=40;fontColor=#000000;fillColor=#ffffc0;strokeColor=#ff0000;fontSize=14;" vertex="1" parent="1">
          <mxGeometry x="365" y="560" width="120" height="40" as="geometry" />
        </mxCell>
        <mxCell id="Ei0nYyWku0wqcnocU7TV-16" value="" style="edgeStyle=orthogonalEdgeStyle;html=1;verticalAlign=bottom;endArrow=open;endSize=8;strokeColor=#ff0000;rounded=0;fontSize=14;" edge="1" source="Ei0nYyWku0wqcnocU7TV-15" parent="1" target="Ei0nYyWku0wqcnocU7TV-17">
          <mxGeometry relative="1" as="geometry">
            <mxPoint x="425" y="660" as="targetPoint" />
          </mxGeometry>
        </mxCell>
        <mxCell id="Ei0nYyWku0wqcnocU7TV-17" value="" style="rhombus;whiteSpace=wrap;html=1;fontColor=#000000;fillColor=#ffffc0;strokeColor=#ff0000;fontSize=14;" vertex="1" parent="1">
          <mxGeometry x="385" y="640" width="80" height="40" as="geometry" />
        </mxCell>
        <mxCell id="Ei0nYyWku0wqcnocU7TV-18" value="Không hợp lệ" style="edgeStyle=orthogonalEdgeStyle;html=1;align=left;verticalAlign=bottom;endArrow=open;endSize=8;strokeColor=#ff0000;rounded=0;fontSize=14;" edge="1" source="Ei0nYyWku0wqcnocU7TV-17" parent="1" target="Ei0nYyWku0wqcnocU7TV-7">
          <mxGeometry x="-1" relative="1" as="geometry">
            <mxPoint x="565" y="660" as="targetPoint" />
            <Array as="points">
              <mxPoint x="540" y="660" />
              <mxPoint x="540" y="340" />
            </Array>
          </mxGeometry>
        </mxCell>
        <mxCell id="Ei0nYyWku0wqcnocU7TV-19" value="Hợp lệ" style="edgeStyle=orthogonalEdgeStyle;html=1;align=left;verticalAlign=top;endArrow=open;endSize=8;strokeColor=#ff0000;rounded=0;fontSize=14;" edge="1" source="Ei0nYyWku0wqcnocU7TV-17" parent="1" target="Ei0nYyWku0wqcnocU7TV-20">
          <mxGeometry x="-1" relative="1" as="geometry">
            <mxPoint x="425" y="740" as="targetPoint" />
          </mxGeometry>
        </mxCell>
        <mxCell id="Ei0nYyWku0wqcnocU7TV-20" value="" style="ellipse;html=1;shape=endState;fillColor=#000000;strokeColor=#ff0000;fontSize=14;" vertex="1" parent="1">
          <mxGeometry x="410" y="725" width="30" height="30" as="geometry" />
        </mxCell>
      </root>
    </mxGraphModel>
  </diagram>
  <diagram id="Njxh-bhJ69_d-20DxH6E" name="Tra cứu thông tin phòng đang cho thuê">
    <mxGraphModel dx="1362" dy="843" grid="1" gridSize="10" guides="1" tooltips="1" connect="1" arrows="1" fold="1" page="1" pageScale="1" pageWidth="850" pageHeight="1100" math="0" shadow="0">
      <root>
        <mxCell id="0" />
        <mxCell id="1" parent="0" />
        <mxCell id="4kwYT2i8BYHiSFMa5F0u-1" value="" style="ellipse;html=1;shape=startState;fillColor=#000000;strokeColor=#ff0000;fontSize=14;" parent="1" vertex="1">
          <mxGeometry x="410" y="10" width="30" height="30" as="geometry" />
        </mxCell>
        <mxCell id="4kwYT2i8BYHiSFMa5F0u-2" value="" style="edgeStyle=orthogonalEdgeStyle;html=1;verticalAlign=bottom;endArrow=open;endSize=8;strokeColor=#ff0000;rounded=0;fontSize=14;" parent="1" source="4kwYT2i8BYHiSFMa5F0u-1" target="4kwYT2i8BYHiSFMa5F0u-3" edge="1">
          <mxGeometry relative="1" as="geometry">
            <mxPoint x="425" y="100" as="targetPoint" />
          </mxGeometry>
        </mxCell>
        <mxCell id="4kwYT2i8BYHiSFMa5F0u-3" value="Tra cứu thông tin phòng cho thuê" style="rounded=1;whiteSpace=wrap;html=1;arcSize=40;fontColor=#000000;fillColor=#ffffc0;strokeColor=#ff0000;fontSize=14;" parent="1" vertex="1">
          <mxGeometry x="365" y="80" width="120" height="40" as="geometry" />
        </mxCell>
        <mxCell id="4kwYT2i8BYHiSFMa5F0u-4" value="" style="edgeStyle=orthogonalEdgeStyle;html=1;verticalAlign=bottom;endArrow=open;endSize=8;strokeColor=#ff0000;rounded=0;fontSize=14;" parent="1" source="4kwYT2i8BYHiSFMa5F0u-3" target="4kwYT2i8BYHiSFMa5F0u-5" edge="1">
          <mxGeometry relative="1" as="geometry">
            <mxPoint x="425" y="180" as="targetPoint" />
          </mxGeometry>
        </mxCell>
        <mxCell id="4kwYT2i8BYHiSFMa5F0u-5" value="" style="rhombus;whiteSpace=wrap;html=1;fontColor=#000000;fillColor=#ffffc0;strokeColor=#ff0000;fontSize=14;" parent="1" vertex="1">
          <mxGeometry x="385" y="160" width="80" height="40" as="geometry" />
        </mxCell>
        <mxCell id="4kwYT2i8BYHiSFMa5F0u-6" value="" style="edgeStyle=orthogonalEdgeStyle;html=1;align=left;verticalAlign=bottom;endArrow=open;endSize=8;strokeColor=#ff0000;rounded=0;fontSize=14;" parent="1" source="4kwYT2i8BYHiSFMa5F0u-5" target="4kwYT2i8BYHiSFMa5F0u-11" edge="1">
          <mxGeometry x="-1" relative="1" as="geometry">
            <mxPoint x="565" y="180" as="targetPoint" />
          </mxGeometry>
        </mxCell>
        <mxCell id="4kwYT2i8BYHiSFMa5F0u-7" value="" style="edgeStyle=orthogonalEdgeStyle;html=1;align=left;verticalAlign=top;endArrow=open;endSize=8;strokeColor=#ff0000;rounded=0;fontSize=14;" parent="1" source="4kwYT2i8BYHiSFMa5F0u-5" target="4kwYT2i8BYHiSFMa5F0u-9" edge="1">
          <mxGeometry x="-1" relative="1" as="geometry">
            <mxPoint x="400" y="260" as="targetPoint" />
            <mxPoint x="360" y="180" as="sourcePoint" />
          </mxGeometry>
        </mxCell>
        <mxCell id="4kwYT2i8BYHiSFMa5F0u-9" value="Tra cứu doanh thu" style="rounded=1;whiteSpace=wrap;html=1;arcSize=40;fontColor=#000000;fillColor=#ffffc0;strokeColor=#ff0000;fontSize=14;" parent="1" vertex="1">
          <mxGeometry x="170" y="240" width="120" height="40" as="geometry" />
        </mxCell>
        <mxCell id="4kwYT2i8BYHiSFMa5F0u-10" value="" style="edgeStyle=orthogonalEdgeStyle;html=1;verticalAlign=bottom;endArrow=open;endSize=8;strokeColor=#ff0000;rounded=0;fontSize=14;" parent="1" source="4kwYT2i8BYHiSFMa5F0u-9" target="4kwYT2i8BYHiSFMa5F0u-13" edge="1">
          <mxGeometry relative="1" as="geometry">
            <mxPoint x="330" y="340" as="targetPoint" />
          </mxGeometry>
        </mxCell>
        <mxCell id="4kwYT2i8BYHiSFMa5F0u-11" value="Tra cứu trạng thái phòng" style="rounded=1;whiteSpace=wrap;html=1;arcSize=40;fontColor=#000000;fillColor=#ffffc0;strokeColor=#ff0000;fontSize=14;" parent="1" vertex="1">
          <mxGeometry x="560" y="240" width="120" height="40" as="geometry" />
        </mxCell>
        <mxCell id="4kwYT2i8BYHiSFMa5F0u-13" value="" style="rhombus;whiteSpace=wrap;html=1;fontColor=#000000;fillColor=#ffffc0;strokeColor=#ff0000;fontSize=14;" parent="1" vertex="1">
          <mxGeometry x="190" y="320" width="80" height="40" as="geometry" />
        </mxCell>
        <mxCell id="4kwYT2i8BYHiSFMa5F0u-14" value="" style="edgeStyle=orthogonalEdgeStyle;html=1;align=left;verticalAlign=bottom;endArrow=open;endSize=8;strokeColor=#ff0000;rounded=0;fontSize=14;" parent="1" source="4kwYT2i8BYHiSFMa5F0u-13" target="NENhTIUZBu70-EYXhZKk-1" edge="1">
          <mxGeometry x="-1" relative="1" as="geometry">
            <mxPoint x="370" y="340" as="targetPoint" />
          </mxGeometry>
        </mxCell>
        <mxCell id="4kwYT2i8BYHiSFMa5F0u-15" value="" style="edgeStyle=orthogonalEdgeStyle;html=1;align=left;verticalAlign=top;endArrow=open;endSize=8;strokeColor=#ff0000;rounded=0;fontSize=14;" parent="1" source="4kwYT2i8BYHiSFMa5F0u-13" target="4kwYT2i8BYHiSFMa5F0u-16" edge="1">
          <mxGeometry x="-1" relative="1" as="geometry">
            <mxPoint x="230" y="420" as="targetPoint" />
          </mxGeometry>
        </mxCell>
        <mxCell id="4kwYT2i8BYHiSFMa5F0u-16" value="Tra cứu doanh thu theo mốc thời gian" style="rounded=1;whiteSpace=wrap;html=1;arcSize=40;fontColor=#000000;fillColor=#ffffc0;strokeColor=#ff0000;fontSize=14;" parent="1" vertex="1">
          <mxGeometry x="75" y="410" width="120" height="40" as="geometry" />
        </mxCell>
        <mxCell id="4kwYT2i8BYHiSFMa5F0u-17" value="" style="edgeStyle=orthogonalEdgeStyle;html=1;verticalAlign=bottom;endArrow=open;endSize=8;strokeColor=#ff0000;rounded=0;fontSize=14;" parent="1" source="4kwYT2i8BYHiSFMa5F0u-16" target="NENhTIUZBu70-EYXhZKk-7" edge="1">
          <mxGeometry relative="1" as="geometry">
            <mxPoint x="230" y="500" as="targetPoint" />
          </mxGeometry>
        </mxCell>
        <mxCell id="NENhTIUZBu70-EYXhZKk-1" value="Tra cứu doanh thu theo phòng" style="rounded=1;whiteSpace=wrap;html=1;arcSize=40;fontColor=#000000;fillColor=#ffffc0;strokeColor=#ff0000;fontSize=14;" parent="1" vertex="1">
          <mxGeometry x="265" y="410" width="120" height="40" as="geometry" />
        </mxCell>
        <mxCell id="NENhTIUZBu70-EYXhZKk-2" value="" style="edgeStyle=orthogonalEdgeStyle;html=1;verticalAlign=bottom;endArrow=open;endSize=8;strokeColor=#ff0000;rounded=0;fontSize=14;" parent="1" source="NENhTIUZBu70-EYXhZKk-1" target="NENhTIUZBu70-EYXhZKk-5" edge="1">
          <mxGeometry relative="1" as="geometry">
            <mxPoint x="400" y="490" as="targetPoint" />
            <mxPoint x="400" y="450" as="sourcePoint" />
          </mxGeometry>
        </mxCell>
        <mxCell id="NENhTIUZBu70-EYXhZKk-5" value="Chọn phòng" style="rounded=1;whiteSpace=wrap;html=1;arcSize=40;fontColor=#000000;fillColor=#ffffc0;strokeColor=#ff0000;fontSize=14;" parent="1" vertex="1">
          <mxGeometry x="265" y="490" width="120" height="40" as="geometry" />
        </mxCell>
        <mxCell id="NENhTIUZBu70-EYXhZKk-6" value="" style="edgeStyle=orthogonalEdgeStyle;html=1;verticalAlign=bottom;endArrow=open;endSize=8;strokeColor=#ff0000;rounded=0;fontSize=14;" parent="1" source="NENhTIUZBu70-EYXhZKk-5" target="NENhTIUZBu70-EYXhZKk-9" edge="1">
          <mxGeometry relative="1" as="geometry">
            <mxPoint x="325" y="590" as="targetPoint" />
          </mxGeometry>
        </mxCell>
        <mxCell id="NENhTIUZBu70-EYXhZKk-7" value="Chọn mốc thời gian" style="rounded=1;whiteSpace=wrap;html=1;arcSize=40;fontColor=#000000;fillColor=#ffffc0;strokeColor=#ff0000;fontSize=14;" parent="1" vertex="1">
          <mxGeometry x="75" y="490" width="120" height="40" as="geometry" />
        </mxCell>
        <mxCell id="NENhTIUZBu70-EYXhZKk-8" value="" style="edgeStyle=orthogonalEdgeStyle;html=1;verticalAlign=bottom;endArrow=open;endSize=8;strokeColor=#ff0000;rounded=0;fontSize=14;" parent="1" source="NENhTIUZBu70-EYXhZKk-7" target="NENhTIUZBu70-EYXhZKk-9" edge="1">
          <mxGeometry relative="1" as="geometry">
            <mxPoint x="135" y="590" as="targetPoint" />
          </mxGeometry>
        </mxCell>
        <mxCell id="NENhTIUZBu70-EYXhZKk-9" value="Hiển thị doanh thu" style="rounded=1;whiteSpace=wrap;html=1;arcSize=40;fontColor=#000000;fillColor=#ffffc0;strokeColor=#ff0000;fontSize=14;" parent="1" vertex="1">
          <mxGeometry x="170" y="600" width="120" height="40" as="geometry" />
        </mxCell>
        <mxCell id="NENhTIUZBu70-EYXhZKk-10" value="" style="edgeStyle=orthogonalEdgeStyle;html=1;verticalAlign=bottom;endArrow=open;endSize=8;strokeColor=#ff0000;rounded=0;fontSize=14;" parent="1" source="NENhTIUZBu70-EYXhZKk-9" target="NENhTIUZBu70-EYXhZKk-25" edge="1">
          <mxGeometry relative="1" as="geometry">
            <mxPoint x="230" y="700" as="targetPoint" />
            <Array as="points">
              <mxPoint x="230" y="660" />
              <mxPoint x="410" y="660" />
            </Array>
          </mxGeometry>
        </mxCell>
        <mxCell id="NENhTIUZBu70-EYXhZKk-11" value="" style="edgeStyle=orthogonalEdgeStyle;html=1;verticalAlign=bottom;endArrow=open;endSize=8;strokeColor=#ff0000;rounded=0;fontSize=14;" parent="1" source="4kwYT2i8BYHiSFMa5F0u-11" target="NENhTIUZBu70-EYXhZKk-12" edge="1">
          <mxGeometry relative="1" as="geometry">
            <mxPoint x="720" y="340" as="targetPoint" />
            <mxPoint x="625" y="270" as="sourcePoint" />
          </mxGeometry>
        </mxCell>
        <mxCell id="NENhTIUZBu70-EYXhZKk-12" value="" style="rhombus;whiteSpace=wrap;html=1;fontColor=#000000;fillColor=#ffffc0;strokeColor=#ff0000;fontSize=14;" parent="1" vertex="1">
          <mxGeometry x="580" y="320" width="80" height="40" as="geometry" />
        </mxCell>
        <mxCell id="NENhTIUZBu70-EYXhZKk-13" value="" style="edgeStyle=orthogonalEdgeStyle;html=1;align=left;verticalAlign=bottom;endArrow=open;endSize=8;strokeColor=#ff0000;rounded=0;fontSize=14;" parent="1" source="NENhTIUZBu70-EYXhZKk-12" target="NENhTIUZBu70-EYXhZKk-17" edge="1">
          <mxGeometry x="-1" relative="1" as="geometry">
            <mxPoint x="760" y="340" as="targetPoint" />
          </mxGeometry>
        </mxCell>
        <mxCell id="NENhTIUZBu70-EYXhZKk-14" value="" style="edgeStyle=orthogonalEdgeStyle;html=1;align=left;verticalAlign=top;endArrow=open;endSize=8;strokeColor=#ff0000;rounded=0;fontSize=14;" parent="1" source="NENhTIUZBu70-EYXhZKk-12" target="NENhTIUZBu70-EYXhZKk-15" edge="1">
          <mxGeometry x="-1" relative="1" as="geometry">
            <mxPoint x="620" y="420" as="targetPoint" />
          </mxGeometry>
        </mxCell>
        <mxCell id="NENhTIUZBu70-EYXhZKk-15" value="Tra cứu phòng đang được cho thuê" style="rounded=1;whiteSpace=wrap;html=1;arcSize=40;fontColor=#000000;fillColor=#ffffc0;strokeColor=#ff0000;fontSize=14;" parent="1" vertex="1">
          <mxGeometry x="465" y="450" width="120" height="50" as="geometry" />
        </mxCell>
        <mxCell id="NENhTIUZBu70-EYXhZKk-17" value="Tra cứu phòng trống" style="rounded=1;whiteSpace=wrap;html=1;arcSize=40;fontColor=#000000;fillColor=#ffffc0;strokeColor=#ff0000;fontSize=14;" parent="1" vertex="1">
          <mxGeometry x="655" y="450" width="120" height="50" as="geometry" />
        </mxCell>
        <mxCell id="NENhTIUZBu70-EYXhZKk-20" value="" style="edgeStyle=orthogonalEdgeStyle;html=1;verticalAlign=bottom;endArrow=open;endSize=8;strokeColor=#ff0000;rounded=0;fontSize=14;" parent="1" source="NENhTIUZBu70-EYXhZKk-17" target="NENhTIUZBu70-EYXhZKk-23" edge="1">
          <mxGeometry relative="1" as="geometry">
            <mxPoint x="715" y="590" as="targetPoint" />
            <mxPoint x="715" y="530" as="sourcePoint" />
          </mxGeometry>
        </mxCell>
        <mxCell id="NENhTIUZBu70-EYXhZKk-22" value="" style="edgeStyle=orthogonalEdgeStyle;html=1;verticalAlign=bottom;endArrow=open;endSize=8;strokeColor=#ff0000;rounded=0;fontSize=14;" parent="1" source="NENhTIUZBu70-EYXhZKk-15" target="NENhTIUZBu70-EYXhZKk-23" edge="1">
          <mxGeometry relative="1" as="geometry">
            <mxPoint x="525" y="590" as="targetPoint" />
            <mxPoint x="525" y="530" as="sourcePoint" />
          </mxGeometry>
        </mxCell>
        <mxCell id="NENhTIUZBu70-EYXhZKk-23" value="Hiển thị trạng thái" style="rounded=1;whiteSpace=wrap;html=1;arcSize=40;fontColor=#000000;fillColor=#ffffc0;strokeColor=#ff0000;fontSize=14;" parent="1" vertex="1">
          <mxGeometry x="560" y="600" width="120" height="40" as="geometry" />
        </mxCell>
        <mxCell id="NENhTIUZBu70-EYXhZKk-24" value="" style="edgeStyle=orthogonalEdgeStyle;html=1;verticalAlign=bottom;endArrow=open;endSize=8;strokeColor=#ff0000;rounded=0;fontSize=14;" parent="1" source="NENhTIUZBu70-EYXhZKk-23" target="NENhTIUZBu70-EYXhZKk-25" edge="1">
          <mxGeometry relative="1" as="geometry">
            <mxPoint x="620" y="700" as="targetPoint" />
            <Array as="points">
              <mxPoint x="620" y="660" />
              <mxPoint x="410" y="660" />
            </Array>
          </mxGeometry>
        </mxCell>
        <mxCell id="NENhTIUZBu70-EYXhZKk-25" value="" style="ellipse;html=1;shape=endState;fillColor=#000000;strokeColor=#ff0000;fontSize=14;" parent="1" vertex="1">
          <mxGeometry x="395" y="680" width="30" height="30" as="geometry" />
        </mxCell>
      </root>
    </mxGraphModel>
  </diagram>
  <diagram id="Jlhvlz5aRVQLWlqbvbfk" name="Xóa phòng đang cho thuê">
    <mxGraphModel dx="1362" dy="843" grid="1" gridSize="10" guides="1" tooltips="1" connect="1" arrows="1" fold="1" page="1" pageScale="1" pageWidth="850" pageHeight="1100" math="0" shadow="0">
      <root>
        <mxCell id="0" />
        <mxCell id="1" parent="0" />
        <mxCell id="mUOGMMra7zX02efFww0q-1" value="" style="ellipse;html=1;shape=startState;fillColor=#000000;strokeColor=#ff0000;fontSize=14;" vertex="1" parent="1">
          <mxGeometry x="410" y="20" width="30" height="30" as="geometry" />
        </mxCell>
        <mxCell id="mUOGMMra7zX02efFww0q-2" value="" style="edgeStyle=orthogonalEdgeStyle;html=1;verticalAlign=bottom;endArrow=open;endSize=8;strokeColor=#ff0000;rounded=0;fontSize=14;" edge="1" source="mUOGMMra7zX02efFww0q-1" parent="1" target="mUOGMMra7zX02efFww0q-3">
          <mxGeometry relative="1" as="geometry">
            <mxPoint x="425" y="110" as="targetPoint" />
          </mxGeometry>
        </mxCell>
        <mxCell id="mUOGMMra7zX02efFww0q-3" value="Chọn quản lý danh sách phòng" style="rounded=1;whiteSpace=wrap;html=1;arcSize=40;fontColor=#000000;fillColor=#ffffc0;strokeColor=#ff0000;fontSize=14;" vertex="1" parent="1">
          <mxGeometry x="365" y="90" width="120" height="40" as="geometry" />
        </mxCell>
        <mxCell id="mUOGMMra7zX02efFww0q-4" value="" style="edgeStyle=orthogonalEdgeStyle;html=1;verticalAlign=bottom;endArrow=open;endSize=8;strokeColor=#ff0000;rounded=0;fontSize=14;" edge="1" source="mUOGMMra7zX02efFww0q-3" parent="1" target="mUOGMMra7zX02efFww0q-5">
          <mxGeometry relative="1" as="geometry">
            <mxPoint x="425" y="190" as="targetPoint" />
          </mxGeometry>
        </mxCell>
        <mxCell id="mUOGMMra7zX02efFww0q-5" value="Chọn phòng cần xóa" style="rounded=1;whiteSpace=wrap;html=1;arcSize=40;fontColor=#000000;fillColor=#ffffc0;strokeColor=#ff0000;fontSize=14;" vertex="1" parent="1">
          <mxGeometry x="365" y="170" width="120" height="40" as="geometry" />
        </mxCell>
        <mxCell id="mUOGMMra7zX02efFww0q-6" value="" style="edgeStyle=orthogonalEdgeStyle;html=1;verticalAlign=bottom;endArrow=open;endSize=8;strokeColor=#ff0000;rounded=0;fontSize=14;" edge="1" source="mUOGMMra7zX02efFww0q-5" parent="1" target="mUOGMMra7zX02efFww0q-7">
          <mxGeometry relative="1" as="geometry">
            <mxPoint x="425" y="270" as="targetPoint" />
          </mxGeometry>
        </mxCell>
        <mxCell id="mUOGMMra7zX02efFww0q-7" value="Chọn xóa phòng" style="rounded=1;whiteSpace=wrap;html=1;arcSize=40;fontColor=#000000;fillColor=#ffffc0;strokeColor=#ff0000;fontSize=14;" vertex="1" parent="1">
          <mxGeometry x="365" y="250" width="120" height="40" as="geometry" />
        </mxCell>
        <mxCell id="mUOGMMra7zX02efFww0q-8" value="" style="edgeStyle=orthogonalEdgeStyle;html=1;verticalAlign=bottom;endArrow=open;endSize=8;strokeColor=#ff0000;rounded=0;fontSize=14;" edge="1" source="mUOGMMra7zX02efFww0q-7" parent="1" target="mUOGMMra7zX02efFww0q-9">
          <mxGeometry relative="1" as="geometry">
            <mxPoint x="425" y="350" as="targetPoint" />
          </mxGeometry>
        </mxCell>
        <mxCell id="mUOGMMra7zX02efFww0q-9" value="Xác nhận xóa phòng" style="rounded=1;whiteSpace=wrap;html=1;arcSize=40;fontColor=#000000;fillColor=#ffffc0;strokeColor=#ff0000;fontSize=14;" vertex="1" parent="1">
          <mxGeometry x="365" y="330" width="120" height="40" as="geometry" />
        </mxCell>
        <mxCell id="mUOGMMra7zX02efFww0q-10" value="" style="edgeStyle=orthogonalEdgeStyle;html=1;verticalAlign=bottom;endArrow=open;endSize=8;strokeColor=#ff0000;rounded=0;fontSize=14;" edge="1" source="mUOGMMra7zX02efFww0q-9" parent="1" target="mUOGMMra7zX02efFww0q-11">
          <mxGeometry relative="1" as="geometry">
            <mxPoint x="425" y="430" as="targetPoint" />
          </mxGeometry>
        </mxCell>
        <mxCell id="mUOGMMra7zX02efFww0q-11" value="" style="rhombus;whiteSpace=wrap;html=1;fontColor=#000000;fillColor=#ffffc0;strokeColor=#ff0000;fontSize=14;" vertex="1" parent="1">
          <mxGeometry x="385" y="410" width="80" height="40" as="geometry" />
        </mxCell>
        <mxCell id="mUOGMMra7zX02efFww0q-12" value="Không" style="edgeStyle=orthogonalEdgeStyle;html=1;align=left;verticalAlign=bottom;endArrow=open;endSize=8;strokeColor=#ff0000;rounded=0;fontSize=14;" edge="1" source="mUOGMMra7zX02efFww0q-11" parent="1" target="mUOGMMra7zX02efFww0q-23">
          <mxGeometry x="-0.8028" relative="1" as="geometry">
            <mxPoint x="565" y="430" as="targetPoint" />
            <mxPoint as="offset" />
          </mxGeometry>
        </mxCell>
        <mxCell id="mUOGMMra7zX02efFww0q-13" value="Có" style="edgeStyle=orthogonalEdgeStyle;html=1;align=left;verticalAlign=top;endArrow=open;endSize=8;strokeColor=#ff0000;rounded=0;fontSize=14;" edge="1" source="mUOGMMra7zX02efFww0q-11" parent="1" target="mUOGMMra7zX02efFww0q-15">
          <mxGeometry x="-1" relative="1" as="geometry">
            <mxPoint x="425" y="510" as="targetPoint" />
          </mxGeometry>
        </mxCell>
        <mxCell id="mUOGMMra7zX02efFww0q-15" value="Kiểm tra phòng có đang trong quá trình thuê" style="rounded=1;whiteSpace=wrap;html=1;arcSize=40;fontColor=#000000;fillColor=#ffffc0;strokeColor=#ff0000;fontSize=14;" vertex="1" parent="1">
          <mxGeometry x="365" y="480" width="120" height="60" as="geometry" />
        </mxCell>
        <mxCell id="mUOGMMra7zX02efFww0q-16" value="" style="edgeStyle=orthogonalEdgeStyle;html=1;verticalAlign=bottom;endArrow=open;endSize=8;strokeColor=#ff0000;rounded=0;fontSize=14;" edge="1" source="mUOGMMra7zX02efFww0q-15" parent="1" target="mUOGMMra7zX02efFww0q-17">
          <mxGeometry relative="1" as="geometry">
            <mxPoint x="425" y="590" as="targetPoint" />
          </mxGeometry>
        </mxCell>
        <mxCell id="mUOGMMra7zX02efFww0q-17" value="" style="rhombus;whiteSpace=wrap;html=1;fontColor=#000000;fillColor=#ffffc0;strokeColor=#ff0000;fontSize=14;" vertex="1" parent="1">
          <mxGeometry x="385" y="570" width="80" height="40" as="geometry" />
        </mxCell>
        <mxCell id="mUOGMMra7zX02efFww0q-18" value="Có" style="edgeStyle=orthogonalEdgeStyle;html=1;align=left;verticalAlign=bottom;endArrow=open;endSize=8;strokeColor=#ff0000;rounded=0;fontSize=14;" edge="1" source="mUOGMMra7zX02efFww0q-17" parent="1" target="mUOGMMra7zX02efFww0q-23">
          <mxGeometry x="-0.7436" relative="1" as="geometry">
            <mxPoint x="260" y="590" as="targetPoint" />
            <mxPoint as="offset" />
          </mxGeometry>
        </mxCell>
        <mxCell id="mUOGMMra7zX02efFww0q-19" value="Không" style="edgeStyle=orthogonalEdgeStyle;html=1;align=left;verticalAlign=top;endArrow=open;endSize=8;strokeColor=#ff0000;rounded=0;fontSize=14;" edge="1" source="mUOGMMra7zX02efFww0q-17" parent="1" target="mUOGMMra7zX02efFww0q-21">
          <mxGeometry x="-1" relative="1" as="geometry">
            <mxPoint x="425" y="670" as="targetPoint" />
          </mxGeometry>
        </mxCell>
        <mxCell id="mUOGMMra7zX02efFww0q-21" value="Xóa phòng thành công" style="rounded=1;whiteSpace=wrap;html=1;arcSize=40;fontColor=#000000;fillColor=#ffffc0;strokeColor=#ff0000;fontSize=14;" vertex="1" parent="1">
          <mxGeometry x="365" y="650" width="120" height="40" as="geometry" />
        </mxCell>
        <mxCell id="mUOGMMra7zX02efFww0q-22" value="" style="edgeStyle=orthogonalEdgeStyle;html=1;verticalAlign=bottom;endArrow=open;endSize=8;strokeColor=#ff0000;rounded=0;fontSize=14;" edge="1" source="mUOGMMra7zX02efFww0q-21" parent="1" target="mUOGMMra7zX02efFww0q-25">
          <mxGeometry relative="1" as="geometry">
            <mxPoint x="425" y="750" as="targetPoint" />
          </mxGeometry>
        </mxCell>
        <mxCell id="mUOGMMra7zX02efFww0q-23" value="Giữ nguyên phòng" style="rounded=1;whiteSpace=wrap;html=1;arcSize=40;fontColor=#000000;fillColor=#ffffc0;strokeColor=#ff0000;fontSize=14;" vertex="1" parent="1">
          <mxGeometry x="190" y="650" width="120" height="40" as="geometry" />
        </mxCell>
        <mxCell id="mUOGMMra7zX02efFww0q-24" value="" style="edgeStyle=orthogonalEdgeStyle;html=1;verticalAlign=bottom;endArrow=open;endSize=8;strokeColor=#ff0000;rounded=0;fontSize=14;" edge="1" source="mUOGMMra7zX02efFww0q-23" parent="1" target="mUOGMMra7zX02efFww0q-25">
          <mxGeometry relative="1" as="geometry">
            <mxPoint x="250" y="750" as="targetPoint" />
            <Array as="points">
              <mxPoint x="250" y="750" />
            </Array>
          </mxGeometry>
        </mxCell>
        <mxCell id="mUOGMMra7zX02efFww0q-25" value="" style="ellipse;html=1;shape=endState;fillColor=#000000;strokeColor=#ff0000;fontSize=14;" vertex="1" parent="1">
          <mxGeometry x="410" y="735" width="30" height="30" as="geometry" />
        </mxCell>
      </root>
    </mxGraphModel>
  </diagram>
</mxfile>
